<?xml version="1.0" encoding="utf-8"?>
<!-- Generator: Adobe Illustrator 20.1.0, SVG Export Plug-In . SVG Version: 6.00 Build 0)  -->
<svg version="1.1" id="Layer_1" xmlns="http://www.w3.org/2000/svg" xmlns:xlink="http://www.w3.org/1999/xlink" x="0px" y="0px"
	 viewBox="0 0 90.5 64" style="enable-background:new 0 0 90.5 64;" xml:space="preserve">
<style type="text/css">
	.st0{fill:#FFFFFF;}
</style>
<path class="st0" d="M21.6,24.5c1.9,0.6,4.1-1.1,3.7-3s-2.8-2-3.9-1.1C19.6,21.8,19.7,23.9,21.6,24.5L21.6,24.5z M22.9,21.3
	c0.7,0.1,1.4,0.5,0.9,1.5s-2.1,0.6-2.2-0.4S22.4,21.2,22.9,21.3z M63.6,44c-0.6-1-3.9-4-12.1-11.9S37.6,19.9,34.8,18.3
	s-10.3-2.6-13.3-3.9s-9.2-7.2-9.3-7.3C12,7,12.7,6.6,12.6,6S7.7,1.4,7,1C6.4,0.6-0.2,6.4,0,7.6s4.5,5,4.9,5.3c0.5,0.3,1.2,0,1.2,0
	s5.7,5.6,7.7,8.2s2.4,6.5,3.4,9.9s2.5,6.4,5.9,10.2S45,61.6,46.7,61.9c1.8,0.2,6.2-1.7,9.2-3.6c2.9-1.9,5.3-5.1,6.7-8
	C64.2,47.4,64.2,44.9,63.6,44L63.6,44z M6.1,10.2C5.5,10.1,3,7.9,2.9,7.3C2.8,7,6.2,3.8,6.8,4c0.6,0.2,3.1,2.7,2.8,3.2
	C9.3,7.7,6.7,10.2,6.1,10.2L6.1,10.2z M16.9,21.5c-0.8-1.1-1.9-2.4-1.9-2.6s0.5-2.8,0.3-3c-0.2-0.2-0.8-0.5-0.9-0.4
	c-0.1,0.1,0,2.3-0.3,2.2c-0.3-0.1-1.4-1.3-1.4-1.5s0.5-3,0.2-3.2c-0.2-0.2-0.8-0.5-0.9-0.3c-0.1,0.1-0.3,2.5-0.3,2.5S11,14.2,11,14
	s0.3-2.3-0.1-2.4c-0.4-0.1-1-0.3-1-0.1s0.1,1.7-0.1,1.6s-1.2-1.2-1.4-1.5c-0.1-0.2,2.2-2.7,2.5-2.6c0.3,0.2,5.6,5.3,7.8,6.6
	s5.4,2.4,7.2,2.8c1.8,0.4,2.9,0.6,2.9,0.6s-2.7,3-2.6,3.3s1.4,5.6,1,5.5s-5.5-1.6-5.9-1.4s-1.9,2-2.1,1.9S17.7,22.7,16.9,21.5z
	 M60.6,49.4c-0.7,1.3-1.2,1.7-1.2,1.7s0.4-2.6,0.1-2.8c-0.2-0.1-1,0-1,0.2s-0.1,4.5-0.2,4.6c-0.1,0.2-1.4,1.7-1.5,1.5
	s0.4-4.7,0.1-4.8c-0.2-0.1-1,0.4-1,0.6c0,0.2,0,5-0.1,5.1S53.7,57,53.7,57s0.2-4.2,0.1-4.3c-0.1-0.1-1.1,0.2-1.1,0.4s0,4.7-0.1,4.8
	s-1.7,1.1-1.8,0.9c-0.1-0.2,0.5-5.5,0.3-5.5s-1.2,0-1.2,0.3s-0.2,5.9-0.4,5.9s-1.6,0.2-1.7-0.1c-0.1-0.4,0.4-5.6,0.2-5.7
	c-0.2-0.1-0.8-0.2-0.9,0.1c-0.1,0.3-0.1,4.9-0.4,4.7c-0.4-0.1-1.6-1.3-1.6-1.4c0-0.1,0.3-4.3,0-4.4c-0.2-0.1-1,0-1.1,0.1s0.1,3,0,3
	s-1.4-1-1.4-1.2s0-3.2,0-3.2s-1.2,0-1.2,0.1c0,0.2-0.1,2.1-0.1,2.1S32.4,46.8,27,41.1s-6.6-7.6-7-9.2c-0.4-1.6-0.7-2.5-0.6-2.7
	c0.1-0.3,1.9-2,2.2-1.9c0.3,0.1,5.5,1.4,6.1,1.5c0.6,0,1.1-0.8,0.9-1.5s-1.2-5-1.1-5.3c0.1-0.4,2.7-2.9,2.7-2.9s2.5,0,6.6,3.1
	S49.3,34,53.4,37.4c4.1,3.5,6.9,5.9,7.6,7.4C61.8,46.7,61.4,48.1,60.6,49.4L60.6,49.4z M35.9,32.6c-0.2,0-3.6,3.1-3.5,3.4
	c0.1,0.2,0.5,0.8,0.9,1c0.4,0.1,3.2-3.1,3.5-3.5S36.1,32.6,35.9,32.6L35.9,32.6z M38.9,35c-0.3,0-3.9,3.8-3.9,4s0.8,1,1,1
	s3.7-3.6,3.9-4C40,35.7,39.2,35.1,38.9,35z M42.5,37.8c-0.2,0-3.5,3-3.3,3.4c0.1,0.2,0.6,1,0.8,1s3.2-3,3.3-3.5
	C43.3,38.2,42.6,37.8,42.5,37.8L42.5,37.8z"/>
<g>
	<g>
		<path class="st0" d="M3.2,50.6c2.9-1.5,5.9,0.1,8.7,0.9c2.3,0.6,4.5,0.8,6.7-0.1c1.8-0.7,1-3.6-0.8-2.9C12.4,50.6,7.3,45,1.7,48
			C0,48.9,1.5,51.5,3.2,50.6L3.2,50.6z"/>
	</g>
</g>
<g>
	<g>
		<path class="st0" d="M69.3,50.8c2.8,0.7,5.5,1.2,8.4,0.7c3.5-0.6,6.7-2.8,10.4-1.4c1.8,0.7,2.6-2.2,0.8-2.9
			c-2.6-1-4.9-0.7-7.5,0.1c-4,1.2-7,1.7-11.2,0.6C68.2,47.4,67.4,50.3,69.3,50.8L69.3,50.8z"/>
	</g>
</g>
</svg>
